<?xml version="1.0" standalone="no"?>
<!DOCTYPE svg PUBLIC "-//W3C//DTD SVG 1.1//EN" "http://www.w3.org/Graphics/SVG/1.1/DTD/svg11.dtd" >
<svg xmlns="http://www.w3.org/2000/svg">
<metadata></metadata>
<defs>
<font id="interstateregularcompressed" horiz-adv-x="714" >
<font-face units-per-em="2048" ascent="1638" descent="-410" />
<missing-glyph horiz-adv-x="378" />
<glyph horiz-adv-x="2048" />
<glyph horiz-adv-x="2048" />
<glyph unicode="&#xd;" horiz-adv-x="681" />
<glyph unicode=" "  horiz-adv-x="378" />
<glyph unicode="&#x09;" horiz-adv-x="378" />
<glyph unicode="&#xa0;" horiz-adv-x="378" />
<glyph unicode="!" horiz-adv-x="421" d="M94 96q0 51 33 85t84 34t85 -34t34 -85t-34 -85t-85 -34t-84 34t-33 85zM119 729v705h184v-705l-33 -356h-118z" />
<glyph unicode="&#x22;" horiz-adv-x="835" d="M121 1434h211l-47 -670h-117zM504 1434h211l-47 -670h-117z" />
<glyph unicode="#" horiz-adv-x="921" d="M61 328v166h134v446h-134v166h134v328h172v-328h188v328h172v-328h133v-166h-133v-446h133v-166h-133v-328h-172v328h-188v-328h-172v328h-134zM367 494h188v446h-188v-446z" />
<glyph unicode="$" horiz-adv-x="681" d="M45 348l178 29q12 -115 41 -157t82 -42q104 0 105 131q0 88 -39 160t-154 213q-100 125 -151.5 226.5t-51.5 213.5q0 109 48.5 190t136.5 109v148h178v-144q164 -43 200 -295l-176 -38q-16 94 -39.5 131t-70.5 37q-96 0 -96 -134q0 -63 34.5 -125.5t122.5 -173.5 q119 -147 177.5 -261.5t58.5 -239.5q0 -121 -56.5 -206t-150.5 -112v-143h-178v147q-172 57 -199 336z" />
<glyph unicode="%" horiz-adv-x="1437" d="M76 1008q0 215 55 331.5t188.5 116.5t186.5 -114.5t53 -329.5t-55 -332t-188.5 -117t-186.5 115t-53 330zM236 1012q0 -162 17 -231.5t66.5 -69.5t64.5 66.5t15 230.5q0 162 -17 231.5t-66.5 69.5t-64.5 -66.5t-15 -230.5zM303 0l670 1434h162l-670 -1434h-162zM879 422 q0 215 55 331.5t188 116.5t186.5 -114.5t53.5 -329.5t-55.5 -332t-188.5 -117t-186 115t-53 330zM1038 426q0 -162 17.5 -231.5t66.5 -69.5t64.5 66.5t15.5 230.5q0 162 -17.5 231.5t-66.5 69.5t-64.5 -66.5t-15.5 -230.5z" />
<glyph unicode="&#x26;" horiz-adv-x="727" d="M49 348q0 252 174 461l-47 125q-66 170 -65 258q0 121 68.5 192.5t187.5 71.5q100 0 159.5 -55t94.5 -168l-162 -82q-27 80 -47.5 107.5t-55.5 27.5q-74 0 -73 -92q0 -63 47 -188l153 -410q10 51 43 211l148 -39q-55 -250 -101 -414l134 -354h-175l-45 121 q-76 -143 -200 -144q-238 0 -238 371zM227 367q0 -217 80 -217q31 0 54.5 32.5t52.5 128.5l-125 326q-61 -125 -62 -270z" />
<glyph unicode="'" horiz-adv-x="452" d="M121 1434h211l-47 -670h-117z" />
<glyph unicode="(" horiz-adv-x="512" d="M72 618q0 471 276 848l105 -71q-197 -311 -197 -770q0 -468 197 -779l-105 -71q-276 377 -276 843z" />
<glyph unicode=")" horiz-adv-x="512" d="M59 -156q197 311 197 770q0 467 -197 779l105 71q276 -378 276 -843q0 -469 -276 -848z" />
<glyph unicode="*" horiz-adv-x="675" d="M55 1071l211 88l-211 92l62 105l186 -142l-29 230h123l-28 -230l186 142l61 -105l-210 -90l210 -90l-61 -104l-186 139l28 -229h-123l29 229l-186 -139z" />
<glyph unicode="+" horiz-adv-x="694" d="M43 618v173h217v256h174v-256h217v-173h-217v-256h-174v256h-217z" />
<glyph unicode="," horiz-adv-x="413" d="M88 -205l25 416h206l-114 -416h-117z" />
<glyph unicode="-" horiz-adv-x="507" d="M70 659v181h368v-181h-368z" />
<glyph unicode="." horiz-adv-x="413" d="M92 98.5q0 51.5 34 86t85 34.5t86 -34.5t35 -86t-35 -86.5t-86 -35t-85 35t-34 86.5z" />
<glyph unicode="/" horiz-adv-x="563" d="M-18 -184l430 1802h170l-430 -1802h-170z" />
<glyph unicode="0" horiz-adv-x="741" d="M70 712.5q0 186.5 13 316.5t46 230.5t92.5 148.5t147.5 48q172 0 237.5 -181t65.5 -554q0 -381 -64.5 -562.5t-240.5 -181.5q-88 0 -146.5 47.5t-91.5 146.5t-46 227t-13 314.5zM256 723q0 -231 12.5 -353t36 -166t68.5 -44q43 0 66.5 43t34.5 162.5t11 345t-13 350.5 t-37.5 169t-67.5 44q-63 0 -87 -111.5t-24 -439.5z" />
<glyph unicode="1" horiz-adv-x="487" d="M35 1163v119q84 10 125 45t55 107h154v-1434h-185v1163h-149z" />
<glyph unicode="2" horiz-adv-x="679" d="M59 0q10 307 63.5 462.5t196.5 338.5q109 135 109 301q0 94 -17.5 135t-64.5 41t-68.5 -48t-33.5 -177l-181 24q14 178 79 278.5t208 100.5q135 0 198.5 -95t63.5 -253q0 -209 -161 -420q-109 -141 -152 -252.5t-47 -261.5h362v-174h-555z" />
<glyph unicode="3" horiz-adv-x="712" d="M63 344l183 25q8 -111 30.5 -161t77.5 -50q102 0 103 248q0 162 -34 218t-138 56h-39v172h45q90 0 121.5 55.5t31.5 208.5q0 84 -19 122t-70.5 38t-74 -47t-36.5 -156l-178 25q20 170 85.5 264t206.5 94q129 0 200 -91t71 -243q0 -156 -40 -234.5t-124 -107.5 q88 -31 132 -104.5t44 -253.5q0 -209 -78 -327t-217 -118q-264 0 -283 367z" />
<glyph unicode="4" horiz-adv-x="698" d="M29 373v119l401 942h152v-908h86v-157h-86v-369h-158v373h-395zM207 524q16 0 57 1t68 1h92v305q0 156 8 287q-35 -121 -117 -334l-30 -79q-37 -94 -78 -181z" />
<glyph unicode="5" horiz-adv-x="722" d="M78 324l182 24q10 -100 29.5 -145t70.5 -45q63 0 81 74.5t18 248.5q0 156 -22.5 230.5t-88.5 74.5q-82 0 -125 -114l-139 16l29 746h505v-174h-342l-16 -351q49 59 135 60q250 -1 250 -482q0 -246 -68.5 -378t-228.5 -132q-240 0 -270 347z" />
<glyph unicode="6" horiz-adv-x="712" d="M68 469q0 207 30.5 372t88 281.5t125 196.5t159.5 147l107 -145q-131 -84 -217.5 -228.5t-106.5 -308.5q51 88 145 88q127 0 195 -127t68 -311q0 -205 -80 -331t-230 -126q-285 0 -284 492zM242 416q0 -123 31.5 -192.5t84.5 -69.5q121 0 121 276q0 113 -28.5 189.5 t-88.5 76.5q-121 0 -120 -280z" />
<glyph unicode="7" horiz-adv-x="692" d="M39 1260v174h584v-168q-166 -272 -214.5 -542.5t-48.5 -723.5h-184q0 238 14.5 420t77 419.5t174.5 420.5h-403z" />
<glyph unicode="8" horiz-adv-x="700" d="M66 426q0 246 133 358q-125 102 -125 293q0 162 74.5 270.5t201.5 108.5q133 0 205 -108.5t72 -268.5q0 -184 -125 -291q133 -106 133 -360q0 -223 -76 -337t-213 -114q-131 0 -205.5 116t-74.5 333zM246 430q0 -272 106 -272q103 0 103 268q0 272 -107 272 q-102 0 -102 -268zM254 1079q0 -86 25.5 -145.5t70.5 -59.5t70.5 57.5t25.5 141.5q0 203 -96 203t-96 -197z" />
<glyph unicode="9" horiz-adv-x="712" d="M51 999q0 205 80 331t229 126q285 1 285 -491q0 -207 -30.5 -372t-88 -281.5t-125 -196.5t-159.5 -148l-107 146q131 84 217 228t107 308q-51 -88 -146 -88q-127 0 -194.5 127t-67.5 311zM233 1004q0 -113 29 -190t88 -77q121 0 121 281q0 123 -31.5 192.5t-85.5 69.5 q-121 0 -121 -276z" />
<glyph unicode=":" horiz-adv-x="413" d="M92 98.5q0 51.5 34 86t85 34.5t86 -34.5t35 -86t-35 -86.5t-86 -35t-85 35t-34 86.5zM92 977q0 51 34 86t85 35t86 -35t35 -86t-35 -86t-86 -35t-85 35t-34 86z" />
<glyph unicode=";" horiz-adv-x="413" d="M88 -205l25 416h206l-114 -416h-117zM92 977q0 51 34 86t85 35t86 -35t35 -86t-35 -86t-86 -35t-85 35t-34 86z" />
<glyph unicode="&#x3c;" horiz-adv-x="532" d="M47 621v167l422 375v-227l-274 -229l274 -232v-229z" />
<glyph unicode="=" horiz-adv-x="808" d="M113 418v178h583v-178h-583zM113 813v178h583v-178h-583z" />
<glyph unicode="&#x3e;" horiz-adv-x="532" d="M63 246v227l275 229l-275 232v229l422 -375v-167z" />
<glyph unicode="?" horiz-adv-x="655" d="M23 1178q35 129 109.5 203.5t189.5 74.5q137 0 210.5 -87t73.5 -232q0 -109 -26.5 -182.5t-98.5 -170.5q-72 -98 -92 -173.5t-20 -237.5h-168q0 186 25.5 284.5t107.5 210.5q55 74 73.5 124t18.5 122q0 164 -109 164q-51 0 -81.5 -40t-59.5 -134zM168 96q0 51 32.5 85 t84 34t85 -34t33.5 -85t-33.5 -85t-85 -34t-84 34t-32.5 85z" />
<glyph unicode="@" horiz-adv-x="989" d="M66 717q0 348 113.5 543.5t316.5 195.5q201 0 314.5 -196.5t113.5 -522.5q0 -236 -46.5 -329t-138.5 -93q-90 0 -137 72q-70 -76 -147 -76q-152 0 -152 267q0 268 166 268q49 0 84 -27v117q0 55 -13.5 76.5t-52.5 21.5q-45 0 -108 -55l-53 82q82 88 180 88q82 0 121 -45 t39 -156v-407q0 -127 71 -127q43 0 62.5 70.5t19.5 254.5q0 297 -86 458t-237 161q-162 0 -244 -165t-82 -474q0 -643 332 -643q86 0 160 59l47 -80q-94 -78 -213 -78q-203 0 -316.5 196t-113.5 544zM418 580q0 -158 65 -158q39 0 70 41v250q-33 23 -66 22q-39 0 -54 -36.5 t-15 -118.5z" />
<glyph unicode="A" horiz-adv-x="735" d="M35 0l233 1434h201l231 -1434h-190l-47 344h-197l-45 -344h-186zM289 522h149l-53 400q-18 147 -23 198q-4 -41 -22 -200z" />
<glyph unicode="B" horiz-adv-x="763" d="M113 0v1434h235q334 0 334 -383q0 -221 -160 -306q172 -83 172 -325q0 -201 -88 -310.5t-258 -109.5h-235zM293 174h61q84 0 120 58.5t36 187.5t-40 185.5t-124 56.5h-53v-488zM293 825h61q144 1 144 224q0 211 -142 211h-63v-435z" />
<glyph unicode="C" horiz-adv-x="733" d="M74 713q0 391 66.5 567t244.5 176q270 0 289 -407l-185 -25q-16 248 -106 248q-45 0 -69.5 -41t-38 -162t-13.5 -348q0 -330 28.5 -444.5t100.5 -114.5q45 0 67.5 52t39.5 187l180 -24q-25 -199 -86.5 -299.5t-210.5 -100.5q-174 0 -240.5 175.5t-66.5 560.5z" />
<glyph unicode="D" horiz-adv-x="776" d="M113 0v1434h247q193 0 269 -175.5t76 -531.5q0 -371 -88.5 -549t-276.5 -178h-227zM297 176h49q86 0 128 122t42 429q0 297 -39 412.5t-127 115.5h-53v-1079z" />
<glyph unicode="E" horiz-adv-x="681" d="M113 0v1434h499v-181h-315v-407h244v-180h-244v-486h340v-180h-524z" />
<glyph unicode="F" horiz-adv-x="671" d="M113 0v1434h516v-181h-332v-407h244v-180h-244v-666h-184z" />
<glyph unicode="G" horiz-adv-x="761" d="M74 717q0 387 66.5 563t244.5 176q268 0 289 -407l-185 -25q-8 127 -31.5 187.5t-72.5 60.5q-72 0 -97.5 -110.5t-25.5 -444.5q0 -309 26.5 -433t102.5 -124q61 0 89 56t28 187v162h-123v178h303v-327q0 -90 -14.5 -164t-47 -138.5t-94 -100.5t-145.5 -36 q-96 0 -159.5 50.5t-96.5 154t-45 228.5t-12 307z" />
<glyph unicode="H" horiz-adv-x="829" d="M113 0v1434h184v-576h233v576h185v-1434h-185v678h-233v-678h-184z" />
<glyph unicode="I" horiz-adv-x="421" d="M119 0v1434h184v-1434h-184z" />
<glyph unicode="J" horiz-adv-x="696" d="M29 342l172 39q12 -121 38.5 -170t75.5 -49q47 0 67.5 44t20.5 154v1074h185v-1072q0 -385 -277 -385q-143 0 -206.5 96.5t-75.5 268.5z" />
<glyph unicode="K" horiz-adv-x="722" d="M113 0v1434h180v-342q0 -43 -1 -125t-1 -113q39 129 86 254l119 326h190l-221 -533l225 -901h-188l-164 690l-45 -112v-578h-180z" />
<glyph unicode="L" horiz-adv-x="624" d="M113 0v1434h184v-1254h287v-180h-471z" />
<glyph unicode="M" horiz-adv-x="972" d="M113 0v1434h198l111 -531q51 -242 63 -381q14 152 64 383l113 529h198v-1434h-168v438q0 94 4 269.5t4 255.5q-35 -209 -96 -480l-119 -526l-116 526q-53 238 -97 480q0 -70 4.5 -252.5t4.5 -272.5v-438h-168z" />
<glyph unicode="N" horiz-adv-x="827" d="M113 0v1434h174l149 -463q63 -199 107 -367q0 55 -1 192.5t-1 172.5v465h174v-1434h-131l-170 532q-74 236 -131 447q0 -57 2 -216t2 -210v-553h-174z" />
<glyph unicode="O" horiz-adv-x="770" d="M74 713q0 188 13 316t46 229.5t94.5 149.5t155.5 48q180 0 246.5 -180t66.5 -555q0 -188 -13 -316.5t-47 -229.5t-96.5 -149.5t-158.5 -48.5q-92 0 -153.5 47.5t-94.5 146.5t-46 227t-13 315zM262 723q0 -324 27.5 -442.5t97.5 -118.5q68 0 94.5 116t26.5 433 q0 322 -29.5 441.5t-97.5 119.5t-93.5 -114t-25.5 -435z" />
<glyph unicode="P" horiz-adv-x="737" d="M113 0v1434h262q143 0 229 -94.5t86 -303.5t-91 -313.5t-232 -104.5h-70v-618h-184zM297 793h65q142 0 142 233q0 123 -32 178.5t-99 55.5h-76v-467z" />
<glyph unicode="Q" horiz-adv-x="770" d="M74 713q0 188 13 316t46 229.5t94.5 149.5t155.5 48q180 0 246.5 -180t66.5 -555q0 -401 -84 -582l74 -78l-92 -84l-51 62q-63 -61 -162 -62q-92 0 -153.5 47.5t-94.5 146.5t-46 227t-13 315zM262 723q0 -326 27.5 -448.5t97.5 -122.5q35 0 51 12l-80 92l86 78l45 -55 q19 104 19 432q0 322 -29.5 441.5t-97.5 119.5t-93.5 -114t-25.5 -435z" />
<glyph unicode="R" horiz-adv-x="774" d="M113 0v1434h260q317 0 317 -387q0 -252 -135 -349l152 -698h-191l-135 645h-84v-645h-184zM297 813h65q142 0 142 223q0 123 -31 173.5t-100 50.5h-76v-447z" />
<glyph unicode="S" horiz-adv-x="702" d="M55 348l178 29q25 -209 123.5 -209t98.5 131q0 98 -38 172t-149 211q-202 253 -202 449q0 143 71.5 234t202.5 91q244 0 289 -326l-176 -38q-16 92 -42 135t-69 43q-90 0 -90 -133q0 -74 31.5 -137.5t119.5 -172.5q117 -143 176.5 -264t59.5 -248q0 -147 -76 -242.5 t-207 -95.5q-266 0 -301 371z" />
<glyph unicode="T" horiz-adv-x="659" d="M35 1253v181h590v-181h-203v-1253h-184v1253h-203z" />
<glyph unicode="U" horiz-adv-x="819" d="M109 334v1100h184v-1090q0 -182 119 -182q63 0 88.5 41t25.5 139v1092h185v-1088q0 -369 -301 -369q-141 0 -221 95.5t-80 261.5z" />
<glyph unicode="V" horiz-adv-x="731" d="M35 1434h194l121 -902q10 -80 21 -198q10 117 20 201l111 899h194l-241 -1434h-181z" />
<glyph unicode="W" horiz-adv-x="937" d="M35 1434h172l65 -621q8 -80 29 -315q20 229 31 315l71 621h132l71 -621q10 -86 31 -315q20 236 29 315l65 621h172l-184 -1434h-133l-72 481q-20 135 -45 373q-16 -160 -45 -371l-72 -483h-133z" />
<glyph unicode="X" horiz-adv-x="679" d="M29 0l223 735l-209 699h193l57 -224q33 -123 49 -239q10 74 51 237l60 226h184l-209 -686l223 -748h-192l-66 254q-29 113 -55 256q-31 -160 -57 -258l-66 -252h-186z" />
<glyph unicode="Y" horiz-adv-x="733" d="M20 1434h207l95 -363q35 -133 57 -280q16 125 53 280l84 363h197l-244 -803v-631h-184v621z" />
<glyph unicode="Z" horiz-adv-x="643" d="M66 0v168l266 870q27 88 76 224q-12 0 -66.5 -1t-87.5 -1h-164v174h488v-168l-265 -860l-77 -234q12 0 61 1t82 1h199v-174h-512z" />
<glyph unicode="[" horiz-adv-x="552" d="M113 -190v1624h354v-162h-178v-1301h178v-161h-354z" />
<glyph unicode="\" horiz-adv-x="563" d="M-18 1618h170l430 -1802h-170z" />
<glyph unicode="]" horiz-adv-x="552" d="M86 -29h178v1301h-178v162h354v-1624h-354v161z" />
<glyph unicode="^" horiz-adv-x="696" d="M47 782l223 652h156l223 -652h-198l-105 432l-102 -432h-197z" />
<glyph unicode="_" horiz-adv-x="501" d="M0 -168h502v-164h-502v164z" />
<glyph unicode="`" horiz-adv-x="675" d="M119 1540h219l151 -328h-124z" />
<glyph unicode="a" horiz-adv-x="677" d="M49 332q0 172 63.5 266t182.5 94q76 0 127 -37v144q0 70 -23.5 98.5t-74.5 28.5q-55 0 -136 -80l-98 123q123 129 260 129q123 0 183.5 -66.5t60.5 -220.5v-811h-172v51q-61 -74 -148 -74q-106 0 -165.5 91.5t-59.5 263.5zM217 336q0 -193 109 -193q59 0 96 47v310 q-40 26 -99 26h-4q-102 0 -102 -190z" />
<glyph unicode="b" d="M90 0v1399l172 94v-469q59 74 146 74q137 0 186 -137t49 -416q0 -287 -56.5 -427.5t-180.5 -140.5q-78 0 -144 70v-47h-172zM262 201q51 -51 108.5 -51t78 88t20.5 297q0 205 -21.5 300t-82.5 95q-55 0 -103 -47v-682z" />
<glyph unicode="c" horiz-adv-x="651" d="M63 530q0 299 71 433.5t226 134.5q195 0 240 -285l-158 -63q-14 86 -33.5 130t-58.5 44q-68 0 -90 -98.5t-22 -290.5q0 -201 22.5 -292t91.5 -91q37 0 59.5 37.5t43.5 125.5l147 -61q-61 -276 -252 -277q-287 0 -287 553z" />
<glyph unicode="d" d="M70 530q0 287 56 427.5t183 140.5q76 0 142 -70v371l174 94v-1493h-174v51q-59 -74 -144 -74q-72 0 -120 38t-73.5 116t-34.5 171t-9 228zM246 541q0 -207 20.5 -301.5t83.5 -94.5q58 1 101 48v681q-47 51 -109 52q-57 0 -76.5 -87t-19.5 -298z" />
<glyph unicode="e" horiz-adv-x="673" d="M63 530q0 567 283 568q268 0 268 -570v-51h-387q8 -325 122 -325h1q41 0 61.5 26.5t51.5 102.5l143 -68q-43 -119 -100 -177.5t-164 -58.5q-279 0 -279 553zM229 635h217q-8 299 -108 299q-96 0 -109 -299z" />
<glyph unicode="f" horiz-adv-x="446" d="M35 903v172h84v158q0 125 54 189.5t151 64.5q72 0 120 -17v-170q-31 12 -77 13q-76 0 -76 -90v-148h125v-172h-125v-903h-172v903h-84z" />
<glyph unicode="g" d="M70 530q0 287 56 427.5t183 140.5q76 0 142 -70v47h174v-987q0 -221 -85 -332.5t-286 -150.5l-47 143q141 33 192.5 95.5t51.5 189.5v18q-59 -74 -144 -74q-72 0 -120 38t-73.5 116t-34.5 171t-9 228zM246 541q0 -207 20.5 -301.5t83.5 -94.5q58 1 101 48v681 q-47 51 -109 52q-57 0 -76.5 -87t-19.5 -298z" />
<glyph unicode="h" horiz-adv-x="698" d="M90 0v1399l172 94v-471q76 76 168 76q102 0 143 -70t41 -237v-791h-172v788q0 74 -15 107t-54 33q-61 0 -111 -47v-881h-172z" />
<glyph unicode="i" horiz-adv-x="370" d="M76 1370q0 45 33.5 81t76.5 36t76 -35t33 -82q0 -45 -33 -80t-76 -35t-76.5 35t-33.5 80zM98 0v1075h174v-1075h-174z" />
<glyph unicode="j" horiz-adv-x="370" d="M-76 -246q104 25 139 69t35 161v1091h174v-1073q0 -203 -75.5 -287t-237.5 -110zM76 1370q0 45 33.5 81t76.5 36t76 -35t33 -82q0 -45 -33 -80t-76 -35t-76.5 35t-33.5 80z" />
<glyph unicode="k" horiz-adv-x="675" d="M90 0v1399l172 94v-543q0 -213 -6 -329q55 145 133 319l60 135h186l-193 -381l207 -694h-182l-137 498l-68 -138v-360h-172z" />
<glyph unicode="l" horiz-adv-x="370" d="M98 0v1399l174 94v-1493h-174z" />
<glyph unicode="m" horiz-adv-x="1030" d="M90 0v1075h172v-53q68 76 162 76q109 0 156 -80q96 80 188 80q98 0 139 -68.5t41 -230.5v-799h-174v795q0 74 -12 103.5t-49 29.5q-55 0 -109 -47v-881h-172v795q0 74 -12 103.5t-51 29.5q-55 0 -107 -47v-881h-172z" />
<glyph unicode="n" horiz-adv-x="698" d="M90 0v1075h172v-53q76 76 168 76q102 0 143 -70t41 -237v-791h-172v788q0 74 -15 107t-54 33q-61 0 -111 -47v-881h-172z" />
<glyph unicode="o" d="M63 532q0 127 11.5 218.5t41 175.5t91 128t153.5 44q291 0 291 -557q0 -127 -13 -222.5t-45 -176.5t-92.5 -123t-148.5 -42q-289 0 -289 555zM238 541q0 -94 3 -148.5t13 -120t36.5 -96.5t67.5 -31q39 0 65 32t36 93.5t14 120t4 144.5q0 182 -24.5 288.5t-96.5 106.5 q-39 0 -64.5 -32t-35.5 -93.5t-14 -119.5t-4 -144z" />
<glyph unicode="p" d="M90 -395v1470h172v-51q59 74 146 74q137 0 186 -137t49 -416q0 -287 -56.5 -427.5t-180.5 -140.5q-78 0 -144 70v-344zM262 201q51 -51 108.5 -51t78 88t20.5 297q0 205 -21.5 300t-82.5 95q-55 0 -103 -47v-682z" />
<glyph unicode="q" d="M70 530q0 287 56 427.5t183 140.5q76 0 142 -70v47h174v-1376l-174 -94v446q-59 -74 -144 -74q-72 0 -120 38t-73.5 116t-34.5 171t-9 228zM246 541q0 -207 20.5 -301.5t83.5 -94.5q58 1 101 48v681q-47 51 -109 52q-57 0 -76.5 -87t-19.5 -298z" />
<glyph unicode="r" horiz-adv-x="522" d="M90 0v1075h172v-53q66 76 146 76q65 0 96 -27l-35 -194q-45 41 -111 41q-55 0 -96 -48v-870h-172z" />
<glyph unicode="s" horiz-adv-x="620" d="M49 238l154 61q39 -158 108 -158q41 0 69 29t28 74q0 68 -25 111.5t-96 103.5q-127 102 -177.5 182t-50.5 184q0 121 68 197t182 76q182 0 246 -234l-156 -61q-33 131 -98 131q-35 0 -57.5 -26.5t-22.5 -71.5q0 -57 24.5 -95.5t98.5 -99.5q131 -104 178 -188t47 -199 q0 -125 -74.5 -201t-193.5 -76q-195 0 -252 261z" />
<glyph unicode="t" horiz-adv-x="497" d="M29 903v172h84v324l174 94v-418h151v-172h-151v-655q0 -96 59 -96h3q49 0 102 36l-19 -172q-61 -39 -139 -39q-96 0 -138 62.5t-42 187.5v676h-84z" />
<glyph unicode="u" horiz-adv-x="698" d="M84 285v790h172v-788q0 -74 15.5 -107t54.5 -33q61 0 110 48v880h172v-1075h-172v53q-76 -76 -168 -76q-102 0 -143 70t-41 238z" />
<glyph unicode="v" horiz-adv-x="649" d="M29 1075h176l65 -424q29 -168 56 -420q14 170 53 420l67 424h175l-209 -1075h-174z" />
<glyph unicode="w" horiz-adv-x="878" d="M37 1075h164l16 -233q33 -397 37 -535q18 172 68 535l30 233h174l33 -233q4 -37 31.5 -253t34.5 -282q12 250 37 535l18 233h162l-131 -1075h-168l-45 317q-41 311 -60 492q-55 -442 -61 -492l-45 -317h-162z" />
<glyph unicode="x" horiz-adv-x="641" d="M33 0l190 561l-168 514h181l8 -31q4 -18 34.5 -138t43.5 -181q20 109 77 319l9 31h180l-170 -510l190 -565h-182l-29 113q-49 170 -78 319q0 -4 -77 -319l-29 -113h-180z" />
<glyph unicode="y" horiz-adv-x="669" d="M27 1075h178l65 -424q51 -324 60 -420q16 147 61 420l74 424h176l-313 -1454h-172l94 367z" />
<glyph unicode="z" horiz-adv-x="600" d="M49 0v150l240 585q55 129 80 178q-35 -2 -125 -2h-166v164h457v-149l-240 -586q-51 -123 -80 -178q35 2 125 2h195v-164h-486z" />
<glyph unicode="{" horiz-adv-x="573" d="M27 532v166h57q92 0 92 185v155q0 221 71.5 316.5t278.5 101.5v-145q-111 -20 -142.5 -65.5t-31.5 -174.5v-135q0 -150 -31.5 -219.5t-123.5 -100.5q92 -33 123.5 -102.5t31.5 -218.5v-135q0 -129 32 -174t142 -66v-145q-207 6 -278.5 101t-71.5 317v155q0 184 -92 184 h-57z" />
<glyph unicode="|" horiz-adv-x="430" d="M129 -379v2017h172v-2017h-172z" />
<glyph unicode="}" horiz-adv-x="573" d="M47 -80q111 20 142.5 65.5t31.5 174.5v135q0 150 32 219.5t124 99.5q-92 33 -124 102.5t-32 219.5v135q0 129 -31.5 174t-142.5 66v145q207 -6 278.5 -101t71.5 -317v-155q0 -184 92 -185h58v-166h-58q-92 0 -92 -184v-155q0 -221 -71.5 -316.5t-278.5 -101.5v145z" />
<glyph unicode="~" horiz-adv-x="684" d="M39 649q53 264 192 264q45 0 76 -19.5t78 -72.5q39 -45 59.5 -45t34 24.5t33.5 114.5l131 -30q-49 -266 -190 -267q-45 0 -77 19.5t-77 73.5q-41 47 -61 47q-18 0 -31.5 -25.5t-36.5 -116.5z" />
<glyph unicode="&#xa1;" horiz-adv-x="421" d="M92 1337.5q0 51.5 34 85t85 33.5t84 -33.5t33 -85t-33 -85t-84 -33.5t-85 33.5t-34 85zM119 0v705l33 356h118l33 -356v-705h-184z" />
<glyph unicode="&#xa2;" horiz-adv-x="651" d="M63 721q0 477 197 551v196h170v-190q135 -47 170 -274l-158 -64q-14 86 -33.5 130t-58.5 44q-68 0 -90 -98t-22 -291q0 -201 22.5 -292t91.5 -91q37 0 59.5 38t43.5 126l147 -62q-49 -217 -172 -262v-205h-170v207q-197 78 -197 537z" />
<glyph unicode="&#xa3;" horiz-adv-x="724" d="M76 0v166q109 205 112 422h-106v157h94q-10 57 -37 129q-47 129 -47 248q0 150 72 242t207 92q127 0 195.5 -83t99.5 -257l-174 -35q-18 117 -46 164t-81 47q-92 0 -93 -157q0 -104 37 -215q31 -96 43 -175h170v-157h-164q-4 -215 -100 -420h399v-168h-581z" />
<glyph unicode="&#xa4;" horiz-adv-x="1122" d="M20 713l285 221q20 16 37 8q16 -12 6 -39l-37 -112h172v391l-112 -39q-29 -8 -39 8q-8 14 8 35l221 284l221 -284q16 -20 9 -35q-10 -16 -39 -8l-113 39v-391h174l-39 112q-8 27 6 39q16 8 37 -8l285 -221l-285 -221q-20 -16 -37 -9q-14 12 -6 39l39 113h-174v-383 l113 39q29 8 39 -8q8 -14 -9 -35l-221 -285l-221 285q-16 20 -8 35q10 16 39 8l112 -39v383h-172l37 -113q10 -27 -6 -39q-16 -8 -37 9z" />
<glyph unicode="&#xa5;" horiz-adv-x="712" d="M20 1434h207l88 -363q41 -160 54 -280q6 90 47 280l80 363h196l-239 -824v-186h170v-166h-170v-258h-172v258h-170v166h170v176z" />
<glyph unicode="&#xa6;" horiz-adv-x="1122" d="M20 713l285 221q20 16 37 8q16 -12 6 -39l-37 -112h172v391l-112 -39q-29 -8 -39 8q-8 14 8 35l221 284l221 -284q16 -20 9 -35q-10 -16 -39 -8l-113 39v-391h174l-39 112q-8 27 6 39q16 8 37 -8l285 -221l-285 -221q-20 -16 -37 -9q-14 12 -6 39l39 113h-174v-383 l113 39q29 8 39 -8q8 -14 -9 -35l-221 -285l-221 285q-16 20 -8 35q10 16 39 8l112 -39v383h-172l37 -113q10 -27 -6 -39q-16 -8 -37 9z" />
<glyph unicode="&#xa7;" horiz-adv-x="747" d="M63 571q0 184 132 326q-82 102 -82 248q0 143 69.5 227t196.5 84q121 0 186.5 -75.5t96.5 -243.5l-175 -35q-25 111 -47 150.5t-67 39.5q-86 0 -86 -135q0 -78 29.5 -126t107.5 -97q139 -86 200.5 -164t61.5 -221q0 -186 -133 -326q82 -98 82 -248q0 -143 -69.5 -227 t-194.5 -84q-121 0 -187.5 76t-97.5 244l174 34q25 -111 47.5 -150.5t69.5 -39.5q84 0 84 135q0 78 -30 126t-107 97q-92 57 -139.5 97.5t-84.5 114t-37 173.5zM238 590q0 -88 37.5 -141.5t119.5 -100.5q16 -10 45 -31q70 88 70 213q0 88 -37 141.5t-119 100.5 q-33 20 -47 29q-70 -84 -69 -211z" />
<glyph unicode="&#xa8;" horiz-adv-x="675" d="M70 1333q0 47 32.5 80t81.5 33q45 0 78 -34t33 -79q0 -47 -33 -80.5t-78 -33.5q-49 0 -81.5 33.5t-32.5 80.5zM381 1333q0 47 32.5 80t80 33t80 -33t32.5 -80t-33.5 -80.5t-78.5 -33.5t-79 33.5t-34 80.5z" />
<glyph unicode="&#xa9;" horiz-adv-x="989" d="M66 717q0 338 110.5 538.5t317 200.5t318.5 -200.5t112 -538.5t-112 -539t-318.5 -201t-317 201t-110.5 539zM170 717q0 -297 79 -469t244.5 -172t245.5 172t80 469t-80 469t-245.5 172t-244.5 -172t-79 -469zM309 719q0 213 43 314.5t140 101.5q80 0 118.5 -57.5 t53.5 -172.5l-113 -22q-14 88 -25.5 114.5t-36.5 26.5q-35 0 -47 -65.5t-12 -237.5q0 -176 13.5 -240.5t50.5 -64.5q25 0 38 27.5t23 111.5l111 -27q-18 -117 -57.5 -171t-119.5 -54q-96 0 -138 100.5t-42 315.5z" />
<glyph unicode="&#xaa;" horiz-adv-x="610" d="M74 846q0 137 52 212t148 75q57 0 99 -23v104q0 53 -17.5 76t-56.5 23q-43 0 -111 -64l-82 99q98 109 213 108q100 0 149.5 -54t49.5 -177v-645h-145v30q-49 -51 -115 -51q-86 0 -135 74t-49 213zM217 845.5q0 -153.5 82 -153.5q45 0 74 35v252q-37 20 -78 20 q-78 0 -78 -153.5z" />
<glyph unicode="&#xab;" horiz-adv-x="827" d="M27 537l249 538h175l-246 -536l246 -539h-175zM350 537l250 538h174l-246 -536l246 -539h-174z" />
<glyph unicode="&#xac;" horiz-adv-x="745" d="M47 633v160h387l-39 110q-8 29 8 39q14 8 35 -8l287 -221l-287 -221q-20 -16 -35 -9q-16 10 -8 39l39 111h-387z" />
<glyph unicode="&#xad;" horiz-adv-x="507" d="M70 659v181h368v-181h-368z" />
<glyph unicode="&#xae;" horiz-adv-x="989" d="M66 717q0 338 110.5 538.5t317 200.5t318.5 -200.5t112 -538.5t-112 -539t-318.5 -201t-317 201t-110.5 539zM170 717q0 -297 79 -469t244.5 -172t245.5 172t80 469t-80 469t-245.5 172t-244.5 -172t-79 -469zM338 332v807h149q86 0 138.5 -53.5t52.5 -163.5 q0 -129 -78 -191l88 -399h-121l-78 362q-10 -2 -36 -2v-360h-115zM453 788h24q82 1 82 130q0 121 -82 120h-24v-250z" />
<glyph unicode="&#xaf;" horiz-adv-x="675" d="M90 1253v138h496v-138h-496z" />
<glyph unicode="&#xb0;" horiz-adv-x="708" d="M57 1153q0 129 84 216t213 87t213 -87t84 -216q0 -131 -84 -219t-213 -88t-213 88t-84 219zM195 1153q0 -78 45 -128t114 -50q72 0 117 50t45 128q0 76 -45 124t-117 48q-70 0 -114.5 -48t-44.5 -124z" />
<glyph unicode="&#xb1;" horiz-adv-x="1122" d="M20 713l285 221q20 16 37 8q16 -12 6 -39l-37 -112h172v391l-112 -39q-29 -8 -39 8q-8 14 8 35l221 284l221 -284q16 -20 9 -35q-10 -16 -39 -8l-113 39v-391h174l-39 112q-8 27 6 39q16 8 37 -8l285 -221l-285 -221q-20 -16 -37 -9q-14 12 -6 39l39 113h-174v-383 l113 39q29 8 39 -8q8 -14 -9 -35l-221 -285l-221 285q-16 20 -8 35q10 16 39 8l112 -39v383h-172l37 -113q10 -27 -6 -39q-16 -8 -37 9z" />
<glyph unicode="&#xb2;" horiz-adv-x="1122" d="M20 713l285 221q20 16 37 8q16 -12 6 -39l-37 -112h172v391l-112 -39q-29 -8 -39 8q-8 14 8 35l221 284l221 -284q16 -20 9 -35q-10 -16 -39 -8l-113 39v-391h174l-39 112q-8 27 6 39q16 8 37 -8l285 -221l-285 -221q-20 -16 -37 -9q-14 12 -6 39l39 113h-174v-383 l113 39q29 8 39 -8q8 -14 -9 -35l-221 -285l-221 285q-16 20 -8 35q10 16 39 8l112 -39v383h-172l37 -113q10 -27 -6 -39q-16 -8 -37 9z" />
<glyph unicode="&#xb3;" horiz-adv-x="1122" d="M20 713l285 221q20 16 37 8q16 -12 6 -39l-37 -112h172v391l-112 -39q-29 -8 -39 8q-8 14 8 35l221 284l221 -284q16 -20 9 -35q-10 -16 -39 -8l-113 39v-391h174l-39 112q-8 27 6 39q16 8 37 -8l285 -221l-285 -221q-20 -16 -37 -9q-14 12 -6 39l39 113h-174v-383 l113 39q29 8 39 -8q8 -14 -9 -35l-221 -285l-221 285q-16 20 -8 35q10 16 39 8l112 -39v383h-172l37 -113q10 -27 -6 -39q-16 -8 -37 9z" />
<glyph unicode="&#xb4;" horiz-adv-x="675" d="M186 1212l152 328h219l-246 -328h-125z" />
<glyph unicode="&#xb6;" horiz-adv-x="991" d="M59 1036q0 186 107.5 292t265.5 106h453v-1813h-152v1673h-121v-1673h-151v1016h-37q-158 0 -261.5 105.5t-103.5 293.5z" />
<glyph unicode="&#xb7;" horiz-adv-x="413" d="M92 751.5q0 51.5 34 86t85 34.5t86 -34.5t35 -86t-35 -86t-86 -34.5t-85 34.5t-34 86z" />
<glyph unicode="&#xb8;" horiz-adv-x="675" d="M152 -334l36 62q70 -45 125 -45q78 0 78 84q0 63 -51 63q-33 0 -57 -23l-66 33l57 160h80l-37 -104q29 18 72 18q51 0 85 -38.5t34 -106.5q0 -80 -52.5 -122t-129.5 -42q-88 0 -174 61z" />
<glyph unicode="&#xb9;" horiz-adv-x="1122" d="M20 713l285 221q20 16 37 8q16 -12 6 -39l-37 -112h172v391l-112 -39q-29 -8 -39 8q-8 14 8 35l221 284l221 -284q16 -20 9 -35q-10 -16 -39 -8l-113 39v-391h174l-39 112q-8 27 6 39q16 8 37 -8l285 -221l-285 -221q-20 -16 -37 -9q-14 12 -6 39l39 113h-174v-383 l113 39q29 8 39 -8q8 -14 -9 -35l-221 -285l-221 285q-16 20 -8 35q10 16 39 8l112 -39v383h-172l37 -113q10 -27 -6 -39q-16 -8 -37 9z" />
<glyph unicode="&#xba;" horiz-adv-x="645" d="M84 1004q0 209 53 330.5t189 121.5q235 0 235 -444q0 -451 -244 -451q-233 0 -233 443zM233 1012q0 -76 2.5 -120t10.5 -96.5t27.5 -77t50.5 -24.5q53 0 70.5 83.5t17.5 228.5q0 317 -90 317q-53 0 -71 -83t-18 -228z" />
<glyph unicode="&#xbb;" horiz-adv-x="827" d="M53 0l246 537l-246 538h174l250 -536l-250 -539h-174zM377 0l246 537l-246 538h174l250 -536l-250 -539h-174z" />
<glyph unicode="&#xbc;" horiz-adv-x="1122" d="M20 713l285 221q20 16 37 8q16 -12 6 -39l-37 -112h172v391l-112 -39q-29 -8 -39 8q-8 14 8 35l221 284l221 -284q16 -20 9 -35q-10 -16 -39 -8l-113 39v-391h174l-39 112q-8 27 6 39q16 8 37 -8l285 -221l-285 -221q-20 -16 -37 -9q-14 12 -6 39l39 113h-174v-383 l113 39q29 8 39 -8q8 -14 -9 -35l-221 -285l-221 285q-16 20 -8 35q10 16 39 8l112 -39v383h-172l37 -113q10 -27 -6 -39q-16 -8 -37 9z" />
<glyph unicode="&#xbd;" horiz-adv-x="1122" d="M20 713l285 221q20 16 37 8q16 -12 6 -39l-37 -112h172v391l-112 -39q-29 -8 -39 8q-8 14 8 35l221 284l221 -284q16 -20 9 -35q-10 -16 -39 -8l-113 39v-391h174l-39 112q-8 27 6 39q16 8 37 -8l285 -221l-285 -221q-20 -16 -37 -9q-14 12 -6 39l39 113h-174v-383 l113 39q29 8 39 -8q8 -14 -9 -35l-221 -285l-221 285q-16 20 -8 35q10 16 39 8l112 -39v383h-172l37 -113q10 -27 -6 -39q-16 -8 -37 9z" />
<glyph unicode="&#xbe;" horiz-adv-x="1122" d="M20 713l285 221q20 16 37 8q16 -12 6 -39l-37 -112h172v391l-112 -39q-29 -8 -39 8q-8 14 8 35l221 284l221 -284q16 -20 9 -35q-10 -16 -39 -8l-113 39v-391h174l-39 112q-8 27 6 39q16 8 37 -8l285 -221l-285 -221q-20 -16 -37 -9q-14 12 -6 39l39 113h-174v-383 l113 39q29 8 39 -8q8 -14 -9 -35l-221 -285l-221 285q-16 20 -8 35q10 16 39 8l112 -39v383h-172l37 -113q10 -27 -6 -39q-16 -8 -37 9z" />
<glyph unicode="&#xbf;" horiz-adv-x="655" d="M49 297q0 109 26.5 182.5t98.5 169.5q72 98 92.5 174t20.5 238h168q0 -186 -26 -284.5t-107 -211.5q-55 -74 -74 -124t-19 -122q0 -164 109 -163q51 0 82 40t59 134l154 -74q-35 -129 -109.5 -204t-189.5 -75q-137 0 -211 87.5t-74 232.5zM252 1337.5q0 51.5 33.5 85 t85 33.5t84 -33.5t32.5 -85t-32.5 -85t-84 -33.5t-85 33.5t-33.5 85z" />
<glyph unicode="&#xc0;" horiz-adv-x="735" d="M35 0l233 1434h201l231 -1434h-190l-47 344h-197l-45 -344h-186zM64 1847h219l151 -328h-124zM289 522h149l-53 400q-18 147 -23 198q-4 -41 -22 -200z" />
<glyph unicode="&#xc1;" horiz-adv-x="735" d="M35 0l233 1434h201l231 -1434h-190l-47 344h-197l-45 -344h-186zM289 522h149l-53 400q-18 147 -23 198q-4 -41 -22 -200zM301 1519l152 328h219l-246 -328h-125z" />
<glyph unicode="&#xc2;" horiz-adv-x="735" d="M35 0l233 1434h201l231 -1434h-190l-47 344h-197l-45 -344h-186zM121 1497l180 328h136l180 -328h-137l-113 179l-113 -179h-133zM289 522h149l-53 400q-18 147 -23 198q-4 -41 -22 -200z" />
<glyph unicode="&#xc3;" horiz-adv-x="735" d="M35 0l233 1434h201l231 -1434h-190l-47 344h-197l-45 -344h-186zM92 1528q0 123 44.5 183t113.5 60q63 0 125 -49q70 -63 96 -63q43 0 54 106h120q0 -121 -44 -182.5t-113 -61.5q-66 0 -125 52q-76 57 -96 61q-43 0 -54 -106h-121zM289 522h149l-53 400q-18 147 -23 198 q-4 -41 -22 -200z" />
<glyph unicode="&#xc4;" horiz-adv-x="735" d="M35 0l233 1434h201l231 -1434h-190l-47 344h-197l-45 -344h-186zM101 1640q0 47 32.5 80t81.5 33q45 0 78 -34t33 -79q0 -47 -33 -80.5t-78 -33.5q-49 0 -81.5 33.5t-32.5 80.5zM289 522h149l-53 400q-18 147 -23 198q-4 -41 -22 -200zM412 1640q0 47 32.5 80t80 33 t80 -33t32.5 -80t-33.5 -80.5t-78.5 -33.5t-79 33.5t-34 80.5z" />
<glyph unicode="&#xc5;" horiz-adv-x="735" d="M35 0l217 1335q-82 55 -82 162q0 84 56.5 141.5t142.5 57.5t142 -57.5t56 -141.5q0 -106 -82 -162l215 -1335h-190l-47 344h-197l-45 -344h-186zM272 1497q0 -43 28 -71.5t69 -28.5t68.5 28.5t27.5 71.5t-27.5 71.5t-68.5 28.5t-69 -28.5t-28 -71.5zM289 522h149l-53 400 q-18 147 -23 198q-4 -41 -22 -200z" />
<glyph unicode="&#xc6;" horiz-adv-x="1046" d="M16 0l375 1434h586v-181h-315v-407h243v-180h-243v-486h339v-180h-518v344h-194l-80 -344h-193zM330 522h153v439q0 145 4 260q-23 -106 -61 -277z" />
<glyph unicode="&#xc7;" horiz-adv-x="733" d="M74 713q0 391 66.5 567t244.5 176q270 0 289 -407l-185 -25q-16 248 -106 248q-45 0 -69.5 -41t-38 -162t-13.5 -348q0 -330 28.5 -444.5t100.5 -114.5q45 0 67.5 52t39.5 187l180 -24q-23 -190 -81 -290.5t-194 -109.5l-28 -81q29 18 71 18q51 0 85 -39t34 -106 q0 -80 -52 -122t-130 -42q-88 0 -174 61l37 62q70 -45 125 -45q78 0 78 84q0 63 -52 63q-33 0 -57 -23l-66 33l52 142q-141 27 -196.5 201.5t-55.5 529.5z" />
<glyph unicode="&#xc8;" horiz-adv-x="681" d="M82 1847h219l151 -328h-124zM113 0v1434h499v-181h-315v-407h244v-180h-244v-486h340v-180h-524z" />
<glyph unicode="&#xc9;" horiz-adv-x="681" d="M113 0v1434h499v-181h-315v-407h244v-180h-244v-486h340v-180h-524zM278 1519l152 328h219l-246 -328h-125z" />
<glyph unicode="&#xca;" horiz-adv-x="681" d="M113 0v1434h499v-181h-315v-407h244v-180h-244v-486h340v-180h-524zM115 1519l180 328h136l180 -328h-137l-113 179l-113 -179h-133z" />
<glyph unicode="&#xcb;" horiz-adv-x="681" d="M93 1640q0 47 32.5 80t81.5 33q45 0 78 -34t33 -79q0 -47 -33 -80.5t-78 -33.5q-49 0 -81.5 33.5t-32.5 80.5zM113 0v1434h499v-181h-315v-407h244v-180h-244v-486h340v-180h-524zM404 1640q0 47 32.5 80t80 33t80 -33t32.5 -80t-33.5 -80.5t-78.5 -33.5t-79 33.5 t-34 80.5z" />
<glyph unicode="&#xcc;" horiz-adv-x="421" d="M-94 1847h219l151 -328h-124zM119 0v1434h184v-1434h-184z" />
<glyph unicode="&#xcd;" horiz-adv-x="421" d="M119 0v1434h184v-1434h-184zM145 1519l152 328h219l-246 -328h-125z" />
<glyph unicode="&#xce;" horiz-adv-x="421" d="M-37 1505l180 328h136l180 -328h-137l-113 179l-113 -179h-133zM119 0v1434h184v-1434h-184z" />
<glyph unicode="&#xcf;" horiz-adv-x="421" d="M-57 1640q0 47 32.5 80t81.5 33q45 0 78 -34t33 -79q0 -47 -33 -80.5t-78 -33.5q-49 0 -81.5 33.5t-32.5 80.5zM119 0v1434h184v-1434h-184zM254 1640q0 47 32.5 80t80 33t80 -33t32.5 -80t-33.5 -80.5t-78.5 -33.5t-79 33.5t-34 80.5z" />
<glyph unicode="&#xd0;" horiz-adv-x="796" d="M51 666v168h82v600h248q193 0 268.5 -175.5t75.5 -531.5q0 -371 -88 -549t-277 -178h-227v666h-82zM309 176h58q86 0 128 122t42 429q0 297 -39 412.5t-127 115.5h-62v-421h113v-168h-113v-490z" />
<glyph unicode="&#xd1;" horiz-adv-x="827" d="M113 0v1434h174l149 -463q63 -199 107 -367q0 55 -1 192.5t-1 172.5v465h174v-1434h-131l-170 532q-74 236 -131 447q0 -57 2 -216t2 -210v-553h-174zM147 1532q0 123 44.5 183t113.5 60q63 0 125 -49q70 -63 96 -63q43 0 54 106h120q0 -121 -44 -182.5t-113 -61.5 q-66 0 -125 52q-76 57 -96 61q-43 0 -54 -106h-121z" />
<glyph unicode="&#xd2;" horiz-adv-x="770" d="M74 713q0 188 13 316t46 229.5t94.5 149.5t155.5 48q180 0 246.5 -180t66.5 -555q0 -188 -13 -316.5t-47 -229.5t-96.5 -149.5t-158.5 -48.5q-92 0 -153.5 47.5t-94.5 146.5t-46 227t-13 315zM86 1847h219l151 -328h-124zM262 723q0 -324 27.5 -442.5t97.5 -118.5 q68 0 94.5 116t26.5 433q0 322 -29.5 441.5t-97.5 119.5t-93.5 -114t-25.5 -435z" />
<glyph unicode="&#xd3;" horiz-adv-x="770" d="M74 713q0 188 13 316t46 229.5t94.5 149.5t155.5 48q180 0 246.5 -180t66.5 -555q0 -188 -13 -316.5t-47 -229.5t-96.5 -149.5t-158.5 -48.5q-92 0 -153.5 47.5t-94.5 146.5t-46 227t-13 315zM262 723q0 -324 27.5 -442.5t97.5 -118.5q68 0 94.5 116t26.5 433 q0 322 -29.5 441.5t-97.5 119.5t-93.5 -114t-25.5 -435zM313 1519l152 328h219l-246 -328h-125z" />
<glyph unicode="&#xd4;" horiz-adv-x="770" d="M74 713q0 188 13 316t46 229.5t94.5 149.5t155.5 48q180 0 246.5 -180t66.5 -555q0 -188 -13 -316.5t-47 -229.5t-96.5 -149.5t-158.5 -48.5q-92 0 -153.5 47.5t-94.5 146.5t-46 227t-13 315zM135 1509l180 328h136l180 -328h-137l-113 179l-113 -179h-133zM262 723 q0 -324 27.5 -442.5t97.5 -118.5q68 0 94.5 116t26.5 433q0 322 -29.5 441.5t-97.5 119.5t-93.5 -114t-25.5 -435z" />
<glyph unicode="&#xd5;" horiz-adv-x="770" d="M74 713q0 188 13 316t46 229.5t94.5 149.5t155.5 48q180 0 246.5 -180t66.5 -555q0 -188 -13 -316.5t-47 -229.5t-96.5 -149.5t-158.5 -48.5q-92 0 -153.5 47.5t-94.5 146.5t-46 227t-13 315zM106 1528q0 123 44.5 183t113.5 60q63 0 125 -49q70 -63 96 -63q43 0 54 106 h120q0 -121 -44 -182.5t-113 -61.5q-66 0 -125 52q-76 57 -96 61q-43 0 -54 -106h-121zM262 723q0 -324 27.5 -442.5t97.5 -118.5q68 0 94.5 116t26.5 433q0 322 -29.5 441.5t-97.5 119.5t-93.5 -114t-25.5 -435z" />
<glyph unicode="&#xd6;" horiz-adv-x="770" d="M74 713q0 188 13 316t46 229.5t94.5 149.5t155.5 48q180 0 246.5 -180t66.5 -555q0 -188 -13 -316.5t-47 -229.5t-96.5 -149.5t-158.5 -48.5q-92 0 -153.5 47.5t-94.5 146.5t-46 227t-13 315zM115 1640q0 47 32.5 80t81.5 33q45 0 78 -34t33 -79q0 -47 -33 -80.5 t-78 -33.5q-49 0 -81.5 33.5t-32.5 80.5zM262 723q0 -324 27.5 -442.5t97.5 -118.5q68 0 94.5 116t26.5 433q0 322 -29.5 441.5t-97.5 119.5t-93.5 -114t-25.5 -435zM426 1640q0 47 32.5 80t80 33t80 -33t32.5 -80t-33.5 -80.5t-78.5 -33.5t-79 33.5t-34 80.5z" />
<glyph unicode="&#xd7;" horiz-adv-x="1122" d="M20 713l285 221q20 16 37 8q16 -12 6 -39l-37 -112h172v391l-112 -39q-29 -8 -39 8q-8 14 8 35l221 284l221 -284q16 -20 9 -35q-10 -16 -39 -8l-113 39v-391h174l-39 112q-8 27 6 39q16 8 37 -8l285 -221l-285 -221q-20 -16 -37 -9q-14 12 -6 39l39 113h-174v-383 l113 39q29 8 39 -8q8 -14 -9 -35l-221 -285l-221 285q-16 20 -8 35q10 16 39 8l112 -39v383h-172l37 -113q10 -27 -6 -39q-16 -8 -37 9z" />
<glyph unicode="&#xd8;" horiz-adv-x="770" d="M74 713q0 188 13 316t46 229.5t94.5 149.5t155.5 48q72 0 125 -29l29 109h139l-62 -227q82 -162 82 -588q0 -188 -13 -316.5t-47 -229.5t-96.5 -149.5t-158.5 -48.5q-72 0 -119 27l-29 -106h-139l60 223q-80 162 -80 592zM242 723q0 -152 6 -256l213 784q-25 29 -80 29 q-74 0 -106.5 -120t-32.5 -437zM309 180q27 -27 78 -26q72 0 106.5 121t34.5 436q0 154 -6 256z" />
<glyph unicode="&#xd9;" horiz-adv-x="819" d="M107 1833h219l151 -328h-124zM109 334v1100h184v-1090q0 -182 119 -182q63 0 88.5 41t25.5 139v1092h185v-1088q0 -369 -301 -369q-141 0 -221 95.5t-80 261.5z" />
<glyph unicode="&#xda;" horiz-adv-x="819" d="M109 334v1100h184v-1090q0 -182 119 -182q63 0 88.5 41t25.5 139v1092h185v-1088q0 -369 -301 -369q-141 0 -221 95.5t-80 261.5zM344 1505l152 328h219l-246 -328h-125z" />
<glyph unicode="&#xdb;" horiz-adv-x="819" d="M109 334v1100h184v-1090q0 -182 119 -182q63 0 88.5 41t25.5 139v1092h185v-1088q0 -369 -301 -369q-141 0 -221 95.5t-80 261.5zM162 1519l180 328h136l180 -328h-137l-113 179l-113 -179h-133z" />
<glyph unicode="&#xdc;" horiz-adv-x="819" d="M109 334v1100h184v-1090q0 -182 119 -182q63 0 88.5 41t25.5 139v1092h185v-1088q0 -369 -301 -369q-141 0 -221 95.5t-80 261.5zM142 1640q0 47 32.5 80t81.5 33q45 0 78 -34t33 -79q0 -47 -33 -80.5t-78 -33.5q-49 0 -81.5 33.5t-32.5 80.5zM453 1640q0 47 32.5 80 t80 33t80 -33t32.5 -80t-33.5 -80.5t-78.5 -33.5t-79 33.5t-34 80.5z" />
<glyph unicode="&#xdd;" horiz-adv-x="733" d="M20 1434h207l95 -363q35 -133 57 -280q16 125 53 280l84 363h197l-244 -803v-631h-184v621zM309 1523l152 328h219l-246 -328h-125z" />
<glyph unicode="&#xde;" horiz-adv-x="737" d="M113 0v1434h184v-289h78q143 0 229 -94.5t86 -303t-91 -313t-232 -104.5h-70v-330h-184zM297 504h65q142 0 142 233q0 123 -32 178.5t-99 55.5h-76v-467z" />
<glyph unicode="&#xdf;" horiz-adv-x="757" d="M90 -395v1517q0 365 275 365q133 0 201.5 -94.5t68.5 -268.5q0 -225 -111 -299q84 -31 127 -113.5t43 -248.5q0 -246 -75.5 -354.5t-258.5 -108.5h-18v158h20q90 0 121 63.5t31 227.5q0 160 -35 223t-114 63h-23v158h20q51 0 74 47t23 172q0 113 -23.5 165t-79.5 52 q-53 0 -73.5 -46t-20.5 -153v-1427z" />
<glyph unicode="&#xe0;" horiz-adv-x="677" d="M49 332q0 172 63.5 266t182.5 94q76 0 127 -37v144q0 70 -23.5 98.5t-74.5 28.5q-55 0 -136 -80l-98 123q123 129 260 129q123 0 183.5 -66.5t60.5 -220.5v-811h-172v51q-61 -74 -148 -74q-106 0 -165.5 91.5t-59.5 263.5zM80 1540h219l151 -328h-124zM217 336 q0 -193 109 -193q59 0 96 47v310q-41 27 -103 26q-102 0 -102 -190z" />
<glyph unicode="&#xe1;" horiz-adv-x="677" d="M49 332q0 172 63.5 266t182.5 94q76 0 127 -37v144q0 70 -23.5 98.5t-74.5 28.5q-55 0 -136 -80l-98 123q123 129 260 129q123 0 183.5 -66.5t60.5 -220.5v-811h-172v51q-61 -74 -148 -74q-106 0 -165.5 91.5t-59.5 263.5zM217 336q0 -193 109 -193q59 0 96 47v310 q-41 27 -103 26q-102 0 -102 -190zM262 1212l152 328h219l-246 -328h-125z" />
<glyph unicode="&#xe2;" horiz-adv-x="677" d="M49 332q0 172 63.5 266t182.5 94q76 0 127 -37v144q0 70 -23.5 98.5t-74.5 28.5q-55 0 -136 -80l-98 123q123 129 260 129q123 0 183.5 -66.5t60.5 -220.5v-811h-172v51q-61 -74 -148 -74q-106 0 -165.5 91.5t-59.5 263.5zM96 1202l180 328h136l180 -328h-137l-113 179 l-113 -179h-133zM217 336q0 -193 109 -193q59 0 96 47v310q-41 27 -103 26q-102 0 -102 -190z" />
<glyph unicode="&#xe3;" horiz-adv-x="677" d="M49 332q0 172 63.5 266t182.5 94q76 0 127 -37v144q0 70 -23.5 98.5t-74.5 28.5q-55 0 -136 -80l-98 123q123 129 260 129q123 0 183.5 -66.5t60.5 -220.5v-811h-172v51q-61 -74 -148 -74q-106 0 -165.5 91.5t-59.5 263.5zM71 1221q0 123 44.5 183t113.5 60q63 0 125 -49 q70 -63 96 -63q43 0 54 106h120q0 -121 -44 -182.5t-113 -61.5q-66 0 -125 52q-76 57 -96 61q-43 0 -54 -106h-121zM217 336q0 -193 109 -193q59 0 96 47v310q-41 27 -103 26q-102 0 -102 -190z" />
<glyph unicode="&#xe4;" horiz-adv-x="677" d="M49 332q0 172 63.5 266t182.5 94q76 0 127 -37v144q0 70 -23.5 98.5t-74.5 28.5q-55 0 -136 -80l-98 123q123 129 260 129q123 0 183.5 -66.5t60.5 -220.5v-811h-172v51q-61 -74 -148 -74q-106 0 -165.5 91.5t-59.5 263.5zM80 1323q0 47 32.5 80t81.5 33q45 0 78 -34 t33 -79q0 -47 -33 -80.5t-78 -33.5q-49 0 -81.5 33.5t-32.5 80.5zM217 336q0 -193 109 -193q59 0 96 47v310q-41 27 -103 26q-102 0 -102 -190zM391 1323q0 47 32.5 80t80 33t80 -33t32.5 -80t-33.5 -80.5t-78.5 -33.5t-79 33.5t-34 80.5z" />
<glyph unicode="&#xe5;" horiz-adv-x="677" d="M49 332q0 172 63.5 266t182.5 94q76 0 127 -37v144q0 70 -23.5 98.5t-74.5 28.5q-55 0 -136 -80l-98 123q123 129 260 129q123 0 183.5 -66.5t60.5 -220.5v-811h-172v51q-61 -74 -148 -74q-106 0 -165.5 91.5t-59.5 263.5zM147 1415q0 84 56.5 141.5t142.5 57.5 t142.5 -57.5t56.5 -141.5t-56.5 -141t-142.5 -57t-142.5 57t-56.5 141zM217 336q0 -193 109 -193q59 0 96 47v310q-41 27 -103 26q-102 0 -102 -190zM250 1415q0 -43 27.5 -71.5t68.5 -28.5t68.5 28.5t27.5 71.5t-27.5 72t-68.5 29t-68.5 -29t-27.5 -72z" />
<glyph unicode="&#xe6;" horiz-adv-x="1026" d="M49 332q0 172 63.5 266t182.5 94q76 0 127 -37v144q0 70 -23.5 98.5t-74.5 28.5q-55 0 -136 -80l-98 123q123 129 260 129q125 0 174 -109q63 109 174 109q268 0 269 -570v-51h-387q8 -326 122 -325q41 0 61.5 26.5t51.5 102.5l143 -68q-43 -119 -100 -177.5t-164 -58.5 q-117 0 -186 99q-102 -98 -213 -99q-246 0 -246 355zM217 336q0 -193 109 -193q57 1 125 64q-31 117 -35 297q-37 23 -97 22q-102 0 -102 -190zM582 635h217q-8 299 -109 299q-96 0 -108 -299z" />
<glyph unicode="&#xe7;" horiz-adv-x="651" d="M63 530q0 299 71 433.5t226 134.5q195 0 240 -285l-158 -63q-14 86 -33.5 130t-58.5 44q-68 0 -90 -98.5t-22 -290.5q0 -201 22.5 -292t91.5 -91q37 0 59.5 37.5t43.5 125.5l147 -61q-59 -264 -235 -277l-29 -81q29 18 72 18q51 0 84.5 -39t33.5 -106q0 -80 -52 -122 t-130 -42q-88 0 -174 61l37 62q70 -45 125 -45q78 0 78 84q0 63 -52 63q-33 0 -57 -23l-65 33l51 144q-225 55 -226 546z" />
<glyph unicode="&#xe8;" horiz-adv-x="673" d="M51 1540h219l151 -328h-124zM63 530q0 567 283 568q268 0 268 -570v-51h-387q8 -326 123 -325q41 0 61.5 26.5t51.5 102.5l143 -68q-43 -119 -100 -177.5t-164 -58.5q-279 0 -279 553zM229 635h217q-8 299 -108 299q-96 0 -109 -299z" />
<glyph unicode="&#xe9;" horiz-adv-x="673" d="M63 530q0 567 283 568q268 0 268 -570v-51h-387q8 -326 123 -325q41 0 61.5 26.5t51.5 102.5l143 -68q-43 -119 -100 -177.5t-164 -58.5q-279 0 -279 553zM229 635h217q-8 299 -108 299q-96 0 -109 -299zM260 1212l152 328h219l-246 -328h-125z" />
<glyph unicode="&#xea;" horiz-adv-x="673" d="M63 530q0 567 283 568q268 0 268 -570v-51h-387q8 -326 123 -325q41 0 61.5 26.5t51.5 102.5l143 -68q-43 -119 -100 -177.5t-164 -58.5q-279 0 -279 553zM92 1192l180 328h136l180 -328h-137l-113 179l-113 -179h-133zM229 635h217q-8 299 -108 299q-96 0 -109 -299z " />
<glyph unicode="&#xeb;" horiz-adv-x="673" d="M63 530q0 567 283 568q268 0 268 -570v-51h-387q8 -326 123 -325q41 0 61.5 26.5t51.5 102.5l143 -68q-43 -119 -100 -177.5t-164 -58.5q-279 0 -279 553zM74 1323q0 47 32.5 80t81.5 33q45 0 78 -34t33 -79q0 -47 -33 -80.5t-78 -33.5q-49 0 -81.5 33.5t-32.5 80.5z M229 635h217q-8 299 -108 299q-96 0 -109 -299zM385 1323q0 47 32.5 80t80 33t80 -33t32.5 -80t-33.5 -80.5t-78.5 -33.5t-79 33.5t-34 80.5z" />
<glyph unicode="&#xec;" horiz-adv-x="370" d="M-121 1540h219l151 -328h-124zM98 0v1075h174v-1075h-174z" />
<glyph unicode="&#xed;" horiz-adv-x="370" d="M98 0v1075h174v-1075h-174zM120 1212l152 328h219l-246 -328h-125z" />
<glyph unicode="&#xee;" horiz-adv-x="370" d="M-64 1181l180 328h136l180 -328h-137l-113 179l-113 -179h-133zM98 0v1075h174v-1075h-174z" />
<glyph unicode="&#xef;" horiz-adv-x="370" d="M-84 1347q0 47 32.5 80t81.5 33q45 0 78 -34t33 -79q0 -47 -33 -80.5t-78 -33.5q-49 0 -81.5 33.5t-32.5 80.5zM98 0v1075h174v-1075h-174zM227 1347q0 47 32.5 80t80 33t80 -33t32.5 -80t-33.5 -80.5t-78.5 -33.5t-79 33.5t-34 80.5z" />
<glyph unicode="&#xf0;" d="M63 483q0 231 71 370.5t202 139.5q61 0 100 -26.5t70 -89.5q-23 180 -100 288l-87 -92l-92 84l90 96q-55 41 -129 56v147q137 -23 228 -94l86 94l92 -84l-92 -100q149 -211 149 -682q0 -328 -71.5 -470.5t-225.5 -142.5q-145 0 -218 133.5t-73 372.5zM238 485.5 q0 -178.5 28.5 -259.5t91.5 -81q119 0 119 338q0 342 -123 342q-61 0 -88.5 -80.5t-27.5 -259z" />
<glyph unicode="&#xf1;" horiz-adv-x="698" d="M84 1221q0 123 44.5 183t113.5 60q63 0 125 -49q70 -63 96 -63q43 0 54 106h120q0 -121 -44 -182.5t-113 -61.5q-66 0 -125 52q-76 57 -96 61q-43 0 -54 -106h-121zM90 0v1075h172v-53q76 76 168 76q102 0 143 -70t41 -237v-791h-172v788q0 74 -15 107t-54 33 q-61 0 -111 -47v-881h-172z" />
<glyph unicode="&#xf2;" d="M60 1540h219l151 -328h-124zM63 532q0 127 11.5 218.5t41 175.5t91 128t153.5 44q291 0 291 -557q0 -127 -13 -222.5t-45 -176.5t-92.5 -123t-148.5 -42q-289 0 -289 555zM238 541q0 -94 3 -148.5t13 -120t36.5 -96.5t67.5 -31q39 0 65 32t36 93.5t14 120t4 144.5 q0 182 -24.5 288.5t-96.5 106.5q-39 0 -64.5 -32t-35.5 -93.5t-14 -119.5t-4 -144z" />
<glyph unicode="&#xf3;" d="M63 532q0 127 11.5 218.5t41 175.5t91 128t153.5 44q291 0 291 -557q0 -127 -13 -222.5t-45 -176.5t-92.5 -123t-148.5 -42q-289 0 -289 555zM238 541q0 -94 3 -148.5t13 -120t36.5 -96.5t67.5 -31q39 0 65 32t36 93.5t14 120t4 144.5q0 182 -24.5 288.5t-96.5 106.5 q-39 0 -64.5 -32t-35.5 -93.5t-14 -119.5t-4 -144zM280 1212l152 328h219l-246 -328h-125z" />
<glyph unicode="&#xf4;" d="M63 532q0 127 11.5 218.5t41 175.5t91 128t153.5 44q291 0 291 -557q0 -127 -13 -222.5t-45 -176.5t-92.5 -123t-148.5 -42q-289 0 -289 555zM108 1192l180 328h136l180 -328h-137l-113 179l-113 -179h-133zM238 541q0 -94 3 -148.5t13 -120t36.5 -96.5t67.5 -31 q39 0 65 32t36 93.5t14 120t4 144.5q0 182 -24.5 288.5t-96.5 106.5q-39 0 -64.5 -32t-35.5 -93.5t-14 -119.5t-4 -144z" />
<glyph unicode="&#xf5;" d="M63 532q0 127 11.5 218.5t41 175.5t91 128t153.5 44q291 0 291 -557q0 -127 -13 -222.5t-45 -176.5t-92.5 -123t-148.5 -42q-289 0 -289 555zM81 1221q0 123 44.5 183t113.5 60q63 0 125 -49q70 -63 96 -63q43 0 54 106h120q0 -121 -44 -182.5t-113 -61.5q-66 0 -125 52 q-76 57 -96 61q-43 0 -54 -106h-121zM238 541q0 -94 3 -148.5t13 -120t36.5 -96.5t67.5 -31q39 0 65 32t36 93.5t14 120t4 144.5q0 182 -24.5 288.5t-96.5 106.5q-39 0 -64.5 -32t-35.5 -93.5t-14 -119.5t-4 -144z" />
<glyph unicode="&#xf6;" d="M63 532q0 127 11.5 218.5t41 175.5t91 128t153.5 44q291 0 291 -557q0 -127 -13 -222.5t-45 -176.5t-92.5 -123t-148.5 -42q-289 0 -289 555zM90 1313q0 47 32.5 80t81.5 33q45 0 78 -34t33 -79q0 -47 -33 -80.5t-78 -33.5q-49 0 -81.5 33.5t-32.5 80.5zM238 541 q0 -94 3 -148.5t13 -120t36.5 -96.5t67.5 -31q39 0 65 32t36 93.5t14 120t4 144.5q0 182 -24.5 288.5t-96.5 106.5q-39 0 -64.5 -32t-35.5 -93.5t-14 -119.5t-4 -144zM401 1313q0 47 32.5 80t80 33t80 -33t32.5 -80t-33.5 -80.5t-78.5 -33.5t-79 33.5t-34 80.5z" />
<glyph unicode="&#xf7;" horiz-adv-x="1122" d="M20 713l285 221q20 16 37 8q16 -12 6 -39l-37 -112h172v391l-112 -39q-29 -8 -39 8q-8 14 8 35l221 284l221 -284q16 -20 9 -35q-10 -16 -39 -8l-113 39v-391h174l-39 112q-8 27 6 39q16 8 37 -8l285 -221l-285 -221q-20 -16 -37 -9q-14 12 -6 39l39 113h-174v-383 l113 39q29 8 39 -8q8 -14 -9 -35l-221 -285l-221 285q-16 20 -8 35q10 16 39 8l112 -39v383h-172l37 -113q10 -27 -6 -39q-16 -8 -37 9z" />
<glyph unicode="&#xf8;" d="M63 532q0 127 11.5 218.5t41 175.5t91 128t153.5 44q53 0 105 -21l33 101h133l-64 -195q84 -135 84 -442q0 -127 -13 -222.5t-45 -176.5t-92.5 -123t-148.5 -42q-55 0 -102 21l-33 -100h-133l63 194q-84 133 -84 440zM227 541q0 -133 4 -187l185 570q-23 16 -60 16 q-76 0 -102.5 -108.5t-26.5 -290.5zM299 152q27 -16 59 -17q76 0 102.5 109t26.5 291q0 82 -4 184z" />
<glyph unicode="&#xf9;" horiz-adv-x="698" d="M53 1540h219l151 -328h-124zM84 285v790h172v-788q0 -74 15.5 -107t54.5 -33q61 0 110 48v880h172v-1075h-172v53q-76 -76 -168 -76q-102 0 -143 70t-41 238z" />
<glyph unicode="&#xfa;" horiz-adv-x="698" d="M84 285v790h172v-788q0 -74 15.5 -107t54.5 -33q61 0 110 48v880h172v-1075h-172v53q-76 -76 -168 -76q-102 0 -143 70t-41 238zM286 1212l152 328h219l-246 -328h-125z" />
<glyph unicode="&#xfb;" horiz-adv-x="698" d="M84 285v790h172v-788q0 -74 15.5 -107t54.5 -33q61 0 110 48v880h172v-1075h-172v53q-76 -76 -168 -76q-102 0 -143 70t-41 238zM100 1212l180 328h136l180 -328h-137l-113 179l-113 -179h-133z" />
<glyph unicode="&#xfc;" horiz-adv-x="698" d="M80 1333q0 47 32.5 80t81.5 33q45 0 78 -34t33 -79q0 -47 -33 -80.5t-78 -33.5q-49 0 -81.5 33.5t-32.5 80.5zM84 285v790h172v-788q0 -74 15.5 -107t54.5 -33q61 0 110 48v880h172v-1075h-172v53q-76 -76 -168 -76q-102 0 -143 70t-41 238zM391 1333q0 47 32.5 80t80 33 t80 -33t32.5 -80t-33.5 -80.5t-78.5 -33.5t-79 33.5t-34 80.5z" />
<glyph unicode="&#xfd;" horiz-adv-x="669" d="M27 1075h178l65 -424q51 -324 60 -420q16 147 61 420l74 424h176l-313 -1454h-172l94 367zM272 1192l152 328h219l-246 -328h-125z" />
<glyph unicode="&#xfe;" d="M90 -395v1794l172 94v-469q59 74 146 74q137 0 186 -137t49 -416q0 -287 -56.5 -427.5t-180.5 -140.5q-78 0 -144 70v-344zM262 201q51 -51 108.5 -51t78 88t20.5 297q0 205 -21.5 300t-82.5 95q-55 0 -103 -47v-682z" />
<glyph unicode="&#xff;" horiz-adv-x="669" d="M27 1075h178l65 -424q51 -324 60 -420q16 147 61 420l74 424h176l-313 -1454h-172l94 367zM66 1333q0 47 32.5 80t81.5 33q45 0 78 -34t33 -79q0 -47 -33 -80.5t-78 -33.5q-49 0 -81.5 33.5t-32.5 80.5zM377 1333q0 47 32.5 80t80 33t80 -33t32.5 -80t-33.5 -80.5 t-78.5 -33.5t-79 33.5t-34 80.5z" />
<glyph unicode="&#x152;" horiz-adv-x="1073" d="M74 713q0 188 13 316t46 229.5t94.5 149.5t155.5 48q125 0 182 -125v103h439v-181h-316v-407h244v-180h-244v-486h340v-180h-463v102q-57 -125 -184 -125q-92 0 -153.5 47.5t-94.5 146.5t-46 227t-13 315zM262 723q0 -324 27.5 -442.5t97.5 -118.5q68 0 94.5 116 t26.5 433q0 322 -29.5 441.5t-97.5 119.5t-93.5 -114t-25.5 -435z" />
<glyph unicode="&#x153;" horiz-adv-x="1079" d="M63 532q0 127 11.5 218.5t41 175.5t91 128t153.5 44q70 0 121 -40t76 -106q55 145 195 146q268 0 268 -570v-51h-389q8 -326 125 -325q41 0 61.5 26.5t50.5 102.5l144 -68q-43 -119 -100.5 -177.5t-163.5 -58.5q-135 0 -191 144q-53 -143 -205 -144q-289 0 -289 555z M238 541q0 -94 3 -148.5t13 -120t36.5 -96.5t67.5 -31q39 0 63.5 32t36 93.5t14.5 119t3 145.5q0 184 -23.5 289.5t-95.5 105.5q-39 0 -64.5 -32t-35.5 -93.5t-14 -119.5t-4 -144zM633 635h219q-8 299 -109 299q-98 0 -110 -299z" />
<glyph unicode="&#x178;" horiz-adv-x="733" d="M20 1434h207l95 -363q35 -133 57 -280q16 125 53 280l84 363h197l-244 -803v-631h-184v621zM103 1636q0 47 32.5 80t81.5 33q45 0 78 -34t33 -79q0 -47 -33 -80.5t-78 -33.5q-49 0 -81.5 33.5t-32.5 80.5zM414 1636q0 47 32.5 80t80 33t80 -33t32.5 -80t-33.5 -80.5 t-78.5 -33.5t-79 33.5t-34 80.5z" />
<glyph unicode="&#x2c6;" horiz-adv-x="675" d="M90 1212l180 328h136l180 -328h-137l-113 179l-113 -179h-133z" />
<glyph unicode="&#x2dc;" horiz-adv-x="675" d="M61 1221q0 123 44.5 183t113.5 60q63 0 125 -49q70 -63 96 -63q43 0 54 106h120q0 -121 -44 -182.5t-113 -61.5q-66 0 -125 52q-76 57 -96 61q-43 0 -54 -106h-121z" />
<glyph unicode="&#x2000;" horiz-adv-x="925" />
<glyph unicode="&#x2001;" horiz-adv-x="1851" />
<glyph unicode="&#x2002;" horiz-adv-x="925" />
<glyph unicode="&#x2003;" horiz-adv-x="1851" />
<glyph unicode="&#x2004;" horiz-adv-x="617" />
<glyph unicode="&#x2005;" horiz-adv-x="462" />
<glyph unicode="&#x2006;" horiz-adv-x="308" />
<glyph unicode="&#x2007;" horiz-adv-x="308" />
<glyph unicode="&#x2008;" horiz-adv-x="231" />
<glyph unicode="&#x2009;" horiz-adv-x="370" />
<glyph unicode="&#x200a;" horiz-adv-x="102" />
<glyph unicode="&#x2010;" horiz-adv-x="507" d="M70 659v181h368v-181h-368z" />
<glyph unicode="&#x2011;" horiz-adv-x="507" d="M70 659v181h368v-181h-368z" />
<glyph unicode="&#x2012;" horiz-adv-x="507" d="M70 659v181h368v-181h-368z" />
<glyph unicode="&#x2013;" horiz-adv-x="614" d="M70 666v168h475v-168h-475z" />
<glyph unicode="&#x2014;" horiz-adv-x="774" d="M70 666v168h635v-168h-635z" />
<glyph unicode="&#x2018;" horiz-adv-x="425" d="M86 1038l115 396h116l-24 -396h-207z" />
<glyph unicode="&#x2019;" horiz-adv-x="425" d="M109 1038l24 396h207l-115 -396h-116z" />
<glyph unicode="&#x201a;" horiz-adv-x="425" d="M109 -184l24 395h207l-115 -395h-116z" />
<glyph unicode="&#x201c;" horiz-adv-x="770" d="M86 1038l115 396h116l-24 -396h-207zM430 1038l115 396h117l-25 -396h-207z" />
<glyph unicode="&#x201d;" horiz-adv-x="770" d="M109 1038l24 396h207l-115 -396h-116zM453 1038l24 396h207l-115 -396h-116z" />
<glyph unicode="&#x201e;" horiz-adv-x="770" d="M109 -184l24 395h207l-115 -395h-116zM453 -184l24 395h207l-115 -395h-116z" />
<glyph unicode="&#x2022;" horiz-adv-x="649" d="M125 750q0 84 58.5 143t140.5 59q84 0 142 -59t58 -143t-58 -141.5t-142 -57.5q-82 0 -140.5 58.5t-58.5 140.5z" />
<glyph unicode="&#x2026;" horiz-adv-x="1241" d="M92 98.5q0 51.5 34 86t85 34.5t86 -34.5t35 -86t-35 -86.5t-86 -35t-85 35t-34 86.5zM506 98.5q0 51.5 33.5 86t85 34.5t86 -34.5t34.5 -86t-34.5 -86.5t-86 -35t-85 35t-33.5 86.5zM920 98.5q0 51.5 33.5 86t85 34.5t86 -34.5t34.5 -86t-34.5 -86.5t-86 -35t-85 35 t-33.5 86.5z" />
<glyph unicode="&#x202f;" horiz-adv-x="370" />
<glyph unicode="&#x2039;" horiz-adv-x="503" d="M27 537l249 538h175l-246 -536l246 -539h-175z" />
<glyph unicode="&#x203a;" horiz-adv-x="503" d="M53 0l246 537l-246 538h174l250 -536l-250 -539h-174z" />
<glyph unicode="&#x205f;" horiz-adv-x="462" />
<glyph unicode="&#x2122;" horiz-adv-x="927" d="M25 1331v103h335v-103h-112v-708h-111v708h-112zM438 623v811h109l74 -316q4 -18 16 -86.5t16 -99.5q4 29 37 186l70 316h108v-811h-98v344q0 104 2 149q-16 -84 -35 -153l-84 -361l-84 361q-29 125 -32 149q0 -18 1 -67.5t1 -77.5v-344h-101z" />
<glyph unicode="&#xe000;" horiz-adv-x="1075" d="M0 0v1075h1075v-1075h-1075z" />
<glyph unicode="&#xfb01;" horiz-adv-x="817" d="M35 903v172h84v158q0 125 54 189.5t151 64.5q72 0 120 -17v-170q-31 12 -77 13q-76 0 -76 -90v-148h125v-172h-125v-903h-172v903h-84zM522 1370q0 45 34 81t77 36t75.5 -35t32.5 -82q0 -45 -32.5 -80t-75.5 -35t-77 35t-34 80zM545 0v1075h174v-1075h-174z" />
<glyph unicode="&#xfb02;" horiz-adv-x="817" d="M35 903v172h84v158q0 125 54 189.5t151 64.5q72 0 120 -17v-170q-31 12 -77 13q-76 0 -76 -90v-148h125v-172h-125v-903h-172v903h-84zM545 0v1399l174 94v-1493h-174z" />
</font>
</defs>
</svg>
